<svg width="56" height="58" viewBox="0 0 56 58" fill="none" xmlns="http://www.w3.org/2000/svg">
<rect width="56" height="58" fill="#F1EAFA"/>
<path d="M22.2292 32C22.6285 32 22.9681 31.8725 23.2479 31.6176C23.5277 31.3627 23.6673 31.0527 23.6667 30.6875C23.666 30.3223 23.5265 30.0126 23.2479 29.7582C22.9693 29.5039 22.6298 29.3762 22.2292 29.375C21.8286 29.3738 21.4894 29.5016 21.2114 29.7582C20.9335 30.0149 20.7936 30.3247 20.7917 30.6875C20.7898 31.0503 20.9297 31.3604 21.2114 31.6176C21.4932 31.8749 21.8324 32.0023 22.2292 32ZM30.8542 32C31.1736 32 31.4611 31.9125 31.7167 31.7375C31.9722 31.5625 32.1399 31.3365 32.2198 31.0594C31.9004 31.001 31.5969 30.9025 31.3094 30.7636C31.0219 30.6248 30.7584 30.4463 30.5188 30.2281L29.9198 29.6813C29.7601 29.7979 29.6365 29.9438 29.5489 30.1188C29.4614 30.2938 29.4173 30.4833 29.4167 30.6875C29.4167 31.0521 29.5566 31.3621 29.8364 31.6176C30.1163 31.8731 30.4555 32.0006 30.8542 32ZM20.7917 34.625V35.5C20.7917 35.7479 20.6997 35.9559 20.5157 36.1239C20.3317 36.2919 20.1042 36.3756 19.8334 36.375H18.875C18.6035 36.375 18.376 36.291 18.1927 36.123C18.0093 35.955 17.9173 35.7473 17.9167 35.5V28.5L19.9292 23.25C20.025 22.9875 20.1969 22.776 20.4448 22.6156C20.6927 22.4552 20.968 22.375 21.2709 22.375H24.625V23.5781C24.625 23.6656 24.6292 23.7569 24.6375 23.852C24.6458 23.9471 24.6576 24.0381 24.6729 24.125H21.6063L20.6 26.75H26.7094L28.6261 28.5H19.8334V32.875H33.25V31.1031C33.6014 31.074 33.941 30.9937 34.2687 30.8625C34.5965 30.7312 34.8958 30.549 35.1667 30.3156V35.5C35.1667 35.7479 35.0747 35.9559 34.8907 36.1239C34.7067 36.2919 34.4792 36.3756 34.2084 36.375H33.25C32.9785 36.375 32.751 36.291 32.5677 36.123C32.3843 35.955 32.2923 35.7473 32.2917 35.5V34.625H20.7917ZM30.375 23.25C30.6465 23.25 30.8743 23.166 31.0583 22.998C31.2423 22.83 31.334 22.6223 31.3334 22.375C31.3327 22.1277 31.2407 21.92 31.0574 21.752C30.874 21.584 30.6465 21.5 30.375 21.5C30.1035 21.5 29.876 21.584 29.6927 21.752C29.5093 21.92 29.4173 22.1277 29.4167 22.375C29.416 22.6223 29.508 22.8303 29.6927 22.9989C29.8773 23.1675 30.1048 23.2512 30.375 23.25ZM31.8604 28.9812L26.9729 24.5187C26.8452 24.4021 26.7413 24.2597 26.6615 24.0918C26.5816 23.9237 26.5417 23.7528 26.5417 23.579V20.1875C26.5417 19.8229 26.6816 19.5132 26.9614 19.2582C27.2413 19.0033 27.5805 18.8756 27.9792 18.875H31.6927C31.8844 18.875 32.0722 18.9115 32.2562 18.9844C32.4402 19.0573 32.5958 19.1521 32.7229 19.2688L37.6104 23.7313C37.882 23.9792 38.0177 24.2892 38.0177 24.6614C38.0177 25.0335 37.882 25.3433 37.6104 25.5906L33.8969 28.9812C33.6254 29.2292 33.2861 29.3531 32.8791 29.3531C32.4722 29.3531 32.1326 29.2292 31.8604 28.9812ZM32.8906 27.45L35.9334 24.6719L31.5011 20.625H28.4584V23.4031L32.8906 27.45Z" fill="#8D67BD"/>
</svg>
